<?xml version="1.0" encoding="UTF-8"?> <svg xmlns="http://www.w3.org/2000/svg" id="Layer_2" viewBox="0 0 298.55 293.08"><defs><style>.cls-1,.cls-2{fill:#fff;}.cls-3{fill:none;stroke:#fff;stroke-miterlimit:10;}.cls-2{font-family:Arial-BoldMT, Arial;font-size:32.41px;font-weight:700;letter-spacing:0em;}</style></defs><g id="Layer_1-2"><ellipse class="cls-3" cx="149.28" cy="146.54" rx="148.78" ry="146.04"></ellipse><text class="cls-2" transform="translate(52.15 201.98)"><tspan x="0" y="0">Subscribe to</tspan><tspan x="15.86" y="37.81">Newsletter</tspan></text><path class="cls-1" d="M141.68,144.82c-.08,0-.16,0-.25,0-2.85-.07-5.56-1.29-7.48-3.39l-27.39-29.87c-3.88-4.23-3.56-10.79.71-14.63,4.26-3.84,10.86-3.53,14.76.7l20.01,21.83,47.02-46.62c4.08-4.05,10.69-4.05,14.77,0,4.08,4.04,4.08,10.6,0,14.65l-54.76,54.31c-1.96,1.95-4.62,3.04-7.39,3.04Z"></path></g></svg> 